<svg xmlns="http://www.w3.org/2000/svg" width="155" height="155" viewBox="0 0 155 155">
  <metadata><?xpacket begin="﻿" id="W5M0MpCehiHzreSzNTczkc9d"?>
<x:xmpmeta xmlns:x="adobe:ns:meta/" x:xmptk="Adobe XMP Core 5.6-c138 79.159824, 2016/09/14-01:09:01        ">
   <rdf:RDF xmlns:rdf="http://www.w3.org/1999/02/22-rdf-syntax-ns#">
      <rdf:Description rdf:about=""/>
   </rdf:RDF>
</x:xmpmeta>
                                                                                                    
                                                                                                    
                                                                                                    
                                                                                                    
                                                                                                    
                                                                                                    
                                                                                                    
                                                                                                    
                                                                                                    
                                                                                                    
                                                                                                    
                                                                                                    
                                                                                                    
                                                                                                    
                                                                                                    
                                                                                                    
                                                                                                    
                                                                                                    
                                                                                                    
                                                                                                    
                           
<?xpacket end="w"?></metadata>
<defs>
    <style>
      .cls-1 {
        fill: #acacac;
      }

      .cls-2 {
        fill: #fff;
        fill-rule: evenodd;
      }
    </style>
  </defs>
  <rect class="cls-1" width="155" height="155"/>
  <path id="_155X155" data-name="155X155" class="cls-2" d="M593.379,809.867h-1.641l-4.535,3.5,1.031,1.336q2.485-2.016,2.789-2.285c0.2-.18.387-0.352,0.551-0.516q-0.093,1.361-.094,2.883V827h1.9V809.867Zm11.107,6.938,0.434-5.145h6.855v-1.793h-8.519l-0.645,8.016,1.008,0.644a17.532,17.532,0,0,1,2.977-.339q4.393,0,4.394,3.585a3.491,3.491,0,0,1-1.142,2.813,4.8,4.8,0,0,1-3.2.973,10.077,10.077,0,0,1-2.4-.3,6.729,6.729,0,0,1-2.039-.826v1.875a8.6,8.6,0,0,0,4.418.925,6.766,6.766,0,0,0,4.67-1.511,5.306,5.306,0,0,0,1.693-4.172,4.6,4.6,0,0,0-1.552-3.674,6.3,6.3,0,0,0-4.26-1.342,13.637,13.637,0,0,0-2.684.27h0Zm15.643,0,0.434-5.145h6.855v-1.793H618.9l-0.645,8.016,1.008,0.644a17.533,17.533,0,0,1,2.976-.339q4.395,0,4.395,3.585a3.488,3.488,0,0,1-1.143,2.813,4.8,4.8,0,0,1-3.205.973,10.069,10.069,0,0,1-2.4-.3,6.718,6.718,0,0,1-2.039-.826v1.875a8.594,8.594,0,0,0,4.418.925,6.768,6.768,0,0,0,4.67-1.511,5.306,5.306,0,0,0,1.693-4.172,4.6,4.6,0,0,0-1.553-3.674,6.3,6.3,0,0,0-4.259-1.342,13.629,13.629,0,0,0-2.684.27h0Zm19.838,1.172,5.309-8.11h-2.121l-4.29,6.785-4.253-6.785h-2.2l5.309,8.18L632.022,827h2.109l4.688-7.535L643.424,827h2.262Zm16.111-8.11h-1.64l-4.535,3.5,1.031,1.336q2.484-2.016,2.789-2.285t0.551-.516q-0.095,1.361-.094,2.883V827h1.9V809.867Zm11.108,6.938,0.434-5.145h6.855v-1.793h-8.52l-0.644,8.016,1.008,0.644a17.533,17.533,0,0,1,2.976-.339q4.4,0,4.4,3.585a3.488,3.488,0,0,1-1.143,2.813,4.8,4.8,0,0,1-3.205.973,10.069,10.069,0,0,1-2.4-.3,6.718,6.718,0,0,1-2.039-.826v1.875a8.594,8.594,0,0,0,4.418.925,6.768,6.768,0,0,0,4.67-1.511,5.306,5.306,0,0,0,1.693-4.172,4.6,4.6,0,0,0-1.553-3.674,6.3,6.3,0,0,0-4.259-1.342,13.629,13.629,0,0,0-2.684.27h0Zm15.643,0,0.433-5.145h6.856v-1.793H681.6l-0.644,8.016,1.007,0.644a17.553,17.553,0,0,1,2.977-.339q4.4,0,4.395,3.585a3.488,3.488,0,0,1-1.143,2.813,4.8,4.8,0,0,1-3.205.973,10.069,10.069,0,0,1-2.4-.3,6.725,6.725,0,0,1-2.04-.826v1.875a8.6,8.6,0,0,0,4.418.925,6.766,6.766,0,0,0,4.67-1.511,5.307,5.307,0,0,0,1.694-4.172,4.6,4.6,0,0,0-1.553-3.674,6.3,6.3,0,0,0-4.26-1.342,13.627,13.627,0,0,0-2.683.27h0Z" transform="translate(-562 -741)"/>
</svg>
