<svg xmlns="http://www.w3.org/2000/svg" width="130" height="130" viewBox="0 0 130 130">
  <metadata><?xpacket begin="﻿" id="W5M0MpCehiHzreSzNTczkc9d"?>
<x:xmpmeta xmlns:x="adobe:ns:meta/" x:xmptk="Adobe XMP Core 5.6-c138 79.159824, 2016/09/14-01:09:01        ">
   <rdf:RDF xmlns:rdf="http://www.w3.org/1999/02/22-rdf-syntax-ns#">
      <rdf:Description rdf:about=""/>
   </rdf:RDF>
</x:xmpmeta>
                                                                                                    
                                                                                                    
                                                                                                    
                                                                                                    
                                                                                                    
                                                                                                    
                                                                                                    
                                                                                                    
                                                                                                    
                                                                                                    
                                                                                                    
                                                                                                    
                                                                                                    
                                                                                                    
                                                                                                    
                                                                                                    
                                                                                                    
                                                                                                    
                                                                                                    
                                                                                                    
                           
<?xpacket end="w"?></metadata>
<defs>
    <style>
      .cls-1 {
        fill: #acacac;
      }

      .cls-2 {
        fill: #fff;
        fill-rule: evenodd;
      }
    </style>
  </defs>
  <rect class="cls-1" width="130" height="130"/>
  <path id="_130X130" data-name="130X130" class="cls-2" d="M654.284,1108.15h-1.23l-3.4,2.63,0.774,1q1.863-1.515,2.092-1.71t0.413-.39q-0.071,1.02-.071,2.16V1121h1.424v-12.85Zm13.253,0.67a4.451,4.451,0,0,0-2.909-.85,6.56,6.56,0,0,0-2.176.35,6.377,6.377,0,0,0-1.824.98l0.739,0.99a7.076,7.076,0,0,1,1.705-.85,5.488,5.488,0,0,1,1.591-.23,2.649,2.649,0,0,1,1.753.54,1.82,1.82,0,0,1,.646,1.48,2.178,2.178,0,0,1-.879,1.84,3.879,3.879,0,0,1-2.382.66h-1.283v1.26h1.266q3.673,0,3.674,2.34,0,2.61-3.331,2.61a8.3,8.3,0,0,1-1.789-.22,7.631,7.631,0,0,1-1.78-.63v1.39a6.218,6.218,0,0,0,1.648.54,10.707,10.707,0,0,0,1.868.16,5.792,5.792,0,0,0,3.621-.99,3.369,3.369,0,0,0,1.274-2.83,2.884,2.884,0,0,0-.747-2.07,3.672,3.672,0,0,0-2.294-.99v-0.07a3.424,3.424,0,0,0,1.956-1.04,2.947,2.947,0,0,0,.69-2.02A2.891,2.891,0,0,0,667.537,1108.82Zm12.237,0.82a3.891,3.891,0,0,0-6.368-.07,9.42,9.42,0,0,0-1.046,4.99,9.165,9.165,0,0,0,1.082,4.93,3.869,3.869,0,0,0,6.367.04,9.355,9.355,0,0,0,1.05-4.97A9.191,9.191,0,0,0,679.774,1109.64Zm-5.278.84a2.375,2.375,0,0,1,4.215.02,12.929,12.929,0,0,1,0,8.12,2.367,2.367,0,0,1-4.215.02A12.96,12.96,0,0,1,674.5,1110.48Zm14.729,3.75,3.982-6.08h-1.591l-3.217,5.09-3.19-5.09h-1.653l3.982,6.14-4.272,6.71h1.582l3.516-5.65,3.454,5.65h1.7Zm12.084-6.08h-1.231l-3.4,2.63,0.773,1q1.864-1.515,2.092-1.71c0.153-.14.29-0.27,0.413-0.39q-0.071,1.02-.07,2.16V1121h1.424v-12.85Zm13.252,0.67a4.45,4.45,0,0,0-2.909-.85,6.55,6.55,0,0,0-2.175.35,6.351,6.351,0,0,0-1.824.98l0.738,0.99a7.094,7.094,0,0,1,1.705-.85,5.493,5.493,0,0,1,1.591-.23,2.65,2.65,0,0,1,1.754.54,1.823,1.823,0,0,1,.646,1.48,2.178,2.178,0,0,1-.879,1.84,3.879,3.879,0,0,1-2.382.66h-1.283v1.26h1.265q3.675,0,3.674,2.34,0,2.61-3.331,2.61a8.287,8.287,0,0,1-1.788-.22,7.614,7.614,0,0,1-1.78-.63v1.39a6.206,6.206,0,0,0,1.648.54,10.7,10.7,0,0,0,1.867.16,5.793,5.793,0,0,0,3.622-.99,3.369,3.369,0,0,0,1.274-2.83,2.884,2.884,0,0,0-.747-2.07,3.672,3.672,0,0,0-2.294-.99v-0.07a3.427,3.427,0,0,0,1.956-1.04,2.952,2.952,0,0,0,.689-2.02A2.888,2.888,0,0,0,714.561,1108.82Zm12.238,0.82a3.891,3.891,0,0,0-6.368-.07,9.42,9.42,0,0,0-1.046,4.99,9.165,9.165,0,0,0,1.081,4.93,3.87,3.87,0,0,0,6.368.04,9.355,9.355,0,0,0,1.05-4.97A9.2,9.2,0,0,0,726.8,1109.64Zm-5.278.84a2.374,2.374,0,0,1,4.214.02,12.91,12.91,0,0,1,0,8.12,2.366,2.366,0,0,1-4.214.02A12.96,12.96,0,0,1,721.521,1110.48Z" transform="translate(-624 -1050)"/>
</svg>
