<svg xmlns="http://www.w3.org/2000/svg" width="837.83" height="744.25" viewBox="0 0 837.83 744.25"><defs><style>.cls-1{isolation:isolate;}.cls-2{fill:#333;opacity:0.03;}.cls-2,.cls-4{mix-blend-mode:multiply;}.cls-3,.cls-4{fill:#acacac;}.cls-4{opacity:0.07;}</style></defs><title>Asset 20</title><g class="cls-1"><g id="Layer_2" data-name="Layer 2"><g id="OBJECTS"><path class="cls-2" d="M812.06,492.6,385.59,737.67a49.51,49.51,0,0,1-49.42,0L8.07,548.24a16.14,16.14,0,0,1,0-28L445.3,269.05a42.64,42.64,0,0,1,42.56,0L812.09,456.2A21,21,0,0,1,812.06,492.6Z"/><path class="cls-3" d="M797.77,387.45,487.87,208.6a42.65,42.65,0,0,0-42.56,0L32.08,446H0v27.7H0a16,16,0,0,0,8.07,14l328.1,189.38a49.51,49.51,0,0,0,49.42,0L812.06,432.11a20.77,20.77,0,0,0,10.49-17h0v-27.7Z"/><path class="cls-3" d="M812.06,404.69,385.59,649.76a49.51,49.51,0,0,1-49.42,0L8.07,460.33a16.13,16.13,0,0,1,0-28L445.3,181.14a42.65,42.65,0,0,1,42.56,0L812.09,368.29A21,21,0,0,1,812.06,404.69Z"/><polygon class="cls-3" points="796.15 381.54 385.72 616.81 56.62 426.85 467.03 191.6 796.15 381.54"/><path class="cls-3" d="M175.65,526c9.29-5.4,24.41-5.4,33.77,0s9.4,14.16.11,19.56-24.41,5.4-33.77,0S166.36,531.41,175.65,526Z"/><path class="cls-3" d="M178.39,535.45a2.54,2.54,0,0,0,1.27,2.22l10,5.85a4.28,4.28,0,0,0,4.29,0l10.88-6.28a2.56,2.56,0,0,0,0-4.43l-10-5.85a4.28,4.28,0,0,0-4.29,0l-10.88,6.28A2.54,2.54,0,0,0,178.39,535.45Zm2.45,0a.1.1,0,0,1,.05-.09l10.88-6.28a1.8,1.8,0,0,1,.91-.24,1.82,1.82,0,0,1,.92.25l10,5.85a.11.11,0,0,1,0,.18l-10.88,6.28a1.83,1.83,0,0,1-1.83,0l-10-5.84A.1.1,0,0,1,180.84,535.46Z"/><polygon class="cls-3" points="791.56 416.46 701.15 468.42 701.16 495.86 791.56 443.89 791.56 416.46"/><polygon class="cls-3" points="419.21 630.46 419.23 657.89 414.83 660.42 414.82 632.98 419.21 630.46"/><polygon class="cls-3" points="499.88 584.09 499.9 611.53 495.5 614.05 495.49 586.62 499.88 584.09"/><polygon class="cls-3" points="581.78 537.03 581.79 564.47 577.4 566.99 577.38 539.55 581.78 537.03"/><polygon class="cls-3" points="227.24 592 227.24 609.22 221.2 605.72 221.2 588.49 227.24 592"/><polygon class="cls-3" points="237.84 615.35 231.81 611.85 231.81 594.62 237.84 598.13 237.84 615.35"/><polygon class="cls-3" points="248.45 621.48 242.41 617.98 242.41 600.75 248.45 604.26 248.45 621.48"/><polygon class="cls-3" points="259.06 627.61 253.02 624.11 253.02 606.88 259.06 610.39 259.06 627.61"/><polygon class="cls-3" points="269.67 633.74 263.63 630.24 263.63 613.01 269.67 616.52 269.67 633.74"/><polygon class="cls-3" points="280.27 639.87 274.23 636.38 274.23 619.14 280.27 622.65 280.27 639.87"/><polygon class="cls-3" points="290.88 646 284.84 642.51 284.84 625.27 290.88 628.79 290.88 646"/><polygon class="cls-3" points="301.49 652.14 295.45 648.64 295.45 631.41 301.49 634.92 301.49 652.14"/><polygon class="cls-3" points="312.1 658.26 306.06 654.77 306.06 637.54 312.1 641.05 312.1 658.26"/><polygon class="cls-3" points="322.7 664.4 316.67 660.9 316.67 643.67 322.7 647.18 322.7 664.4"/><ellipse class="cls-4" cx="216.47" cy="395.75" rx="51.76" ry="15.76"/><path class="cls-3" d="M499.66,54.92,593,1.07a7.83,7.83,0,0,1,7.81,0h0l.08,0,0,0,14.86,8.63L604.83,48.78V292a26.2,26.2,0,0,1-13.1,22.69l-79.13,45.67-4.34,11.75-15-8.69h0A14.12,14.12,0,0,1,486,351V78.52A27.25,27.25,0,0,1,499.66,54.92Z"/><path class="cls-3" d="M501,87.21V359.68A14.26,14.26,0,0,0,522.39,372l84.31-48.66a26.2,26.2,0,0,0,13.1-22.69V16.61a7.91,7.91,0,0,0-11.87-6.85L514.63,63.62A27.25,27.25,0,0,0,501,87.21Z"/><polygon class="cls-3" points="506.79 94.12 506.79 341.94 615.24 279.34 615.24 31.53 506.79 94.12"/><polygon class="cls-3" points="545.72 52.6 541.28 66.44 576.74 45.98 570.45 38.33 545.72 52.6"/><path class="cls-3" d="M558.21,324v15a2.28,2.28,0,0,0,3.43,2l11.72-6.74a4.2,4.2,0,0,0,2.1-3.63V313.76a1.27,1.27,0,0,0-1.9-1.1l-13.16,7.57A4.36,4.36,0,0,0,558.21,324Z"/><polygon class="cls-3" points="513.38 99.66 513.38 101.97 533.98 90.06 533.98 87.74 513.38 99.66"/><polygon class="cls-3" points="513.38 106.73 533.98 94.81 533.98 92.5 513.38 104.41 513.38 106.73"/><polygon class="cls-3" points="527.92 100.75 513.38 109.16 513.38 111.48 527.92 103.07 527.92 100.75"/><polygon class="cls-3" points="513.38 120.98 533.98 109.07 533.98 106.75 513.38 118.67 513.38 120.98"/><polygon class="cls-3" points="531.1 103.67 513.38 113.91 513.38 116.23 531.1 105.98 531.1 103.67"/><polygon class="cls-3" points="513.38 125.74 525.66 118.63 525.66 116.32 513.38 123.42 513.38 125.74"/><polygon class="cls-3" points="543.34 281.26 543.34 283.58 563.93 271.67 563.93 269.35 543.34 281.26"/><polygon class="cls-3" points="543.34 288.33 563.93 276.42 563.93 274.11 543.34 286.01 543.34 288.33"/><polygon class="cls-3" points="557.88 282.36 543.34 290.77 543.34 293.09 557.88 284.68 557.88 282.36"/><polygon class="cls-3" points="543.34 302.59 563.93 290.68 563.93 288.36 543.34 300.27 543.34 302.59"/><polygon class="cls-3" points="561.06 285.27 543.34 295.52 543.34 297.84 561.06 287.59 561.06 285.27"/><polygon class="cls-3" points="543.34 307.35 555.62 300.24 555.62 297.93 543.34 305.03 543.34 307.35"/><polygon class="cls-3" points="572.59 265.48 572.59 267.79 593.18 255.88 593.18 253.56 572.59 265.48"/><polygon class="cls-3" points="572.59 272.55 593.18 260.63 593.18 258.31 572.59 270.23 572.59 272.55"/><polygon class="cls-3" points="587.12 266.57 572.59 274.98 572.59 277.3 587.12 268.89 587.12 266.57"/><polygon class="cls-3" points="572.59 286.81 593.18 274.89 593.18 272.57 572.59 284.49 572.59 286.81"/><polygon class="cls-3" points="590.3 269.49 572.59 279.73 572.59 282.05 590.3 271.8 590.3 269.49"/><polygon class="cls-3" points="572.59 291.56 584.87 284.45 584.87 282.14 572.59 289.24 572.59 291.56"/><polygon class="cls-3" points="513.38 297.85 513.38 300.16 533.98 288.25 533.98 285.93 513.38 297.85"/><polygon class="cls-3" points="513.38 304.92 533.98 293 533.98 290.69 513.38 302.6 513.38 304.92"/><polygon class="cls-3" points="527.92 298.94 513.38 307.35 513.38 309.67 527.92 301.26 527.92 298.94"/><polygon class="cls-3" points="513.38 319.18 533.98 307.26 533.98 304.94 513.38 316.86 513.38 319.18"/><polygon class="cls-3" points="531.1 301.86 513.38 312.11 513.38 314.42 531.1 304.17 531.1 301.86"/><polygon class="cls-3" points="513.38 323.93 525.66 316.82 525.66 314.51 513.38 321.61 513.38 323.93"/><path class="cls-3" d="M557.13,137.44c11.76-6.79,21.44-6.38,22-6.36,12.37-1,13.8,16.29,12.63,21.82s.13,6.54.71,7.59,4.24,4.59,5.28,6.5-2.46,5.18-3.55,6.54-.22,2.87.13,4.29-2,4.47-2.12,4.63c1,.84.55,2.46.33,3.51a16.48,16.48,0,0,1-1.74,3.42c.58,7.1-2.65,10.45-7.57,13.3-2.08,1.2-4.47,2.31-7,3.57l-.46.25c-8.05,4.65-8.33,21-8.34,21.89l-36.41,21c13.26-31.32,5.56-46.6,5.16-47.4-6.69-5.39-6.17-16.49-6.15-17.08.63-21.39,13.38-36,14.05-36.8A53.69,53.69,0,0,1,557.13,137.44Z"/><path class="cls-3" d="M835.92,302.44c-3-4.29-6.22-.77-6.22-.77-4.26-1.47-6.38,8.05-6.38,8.05l5.94,7.17C839.48,314.22,838.93,306.74,835.92,302.44Z"/><path class="cls-3" d="M670,304.13c3.36-3.75,6,0,6,0,4.23-.92,5.17,8.39,5.17,8.39l-6.47,6.17C665.29,314.95,666.66,307.88,670,304.13Z"/><path class="cls-3" d="M769.72,327s32.19,2.91,53.74-19.85l6.59,10s-21.8,29.2-60.85,26.08Z"/><path class="cls-3" d="M811.54,461.84s.28,7.1,3.93,8.18,9.42,3,7.92,9.16c-1.43,5.94-9,3.4-10.45,2.6s-9.45-3.8-12.44-4.9-2.79-6.78-1.7-11.86S811.54,461.84,811.54,461.84Z"/><path class="cls-3" d="M789.33,471.13s.13,7,3.78,8,11.47,4.21,8.08,9.29-8.85,3.53-10.34,2.73-10.44-4-13.43-5.08-2.64-6.23-1.54-11.31S789.33,471.13,789.33,471.13Z"/><path class="cls-3" d="M771.09,387s23.79,13.4,38.14,27.75c0,0,5.86,27.51,4.86,48.23,0,0-5.18,7.44-17.94,4.78l-4.74-46.05-38.51-20.5-3.37-13Z"/><path class="cls-3" d="M749.54,393s34.81,24.56,38.53,30.28c0,0,5.3,34.81,4.37,50.36,0,0-10.23,7.58-19.13,2.79,0,0-5.3-40.53-5.7-44.65,0,0-26.65-11.27-30.9-15.92s-6.63-16.83-4.62-20.77Z"/><path class="cls-3" d="M743.32,320.61l-.6,8s1.46,5.51,8.64,6.31,9.9-4.59,9.9-4.59v-6.71Z"/><path class="cls-3" d="M742.73,328.65s-5,1.3-15.65,4.85a431.18,431.18,0,0,0,5,61.54s22.45,4.23,39.75-8.06c0,0,.45-40.09-2.1-60a26.1,26.1,0,0,0-8.46-.4Z"/><path class="cls-3" d="M741.53,317.6s2.77,12.33,14.2,12.14c13.18-.22,13.7-17.45,11.89-25.49-1.69-7.53-10.89-16.35-19.92-10.47C740.93,298.18,738.73,306.3,741.53,317.6Z"/><path class="cls-3" d="M751.73,290s-11.55.68-13.89,15c0,0-1.73,11.92,7.24,19.66,0,0-.32-4.93.34-5.9s-2-3.74-1.72-5.63.47-5.33,2.63-3.67l.79.78a1,1,0,0,0,1.77-.86,6.6,6.6,0,0,1,.56-4c1.46-2.24,9.77,1.76,18.65,0a6.68,6.68,0,0,0,1.33-5.15S766.88,286.7,751.73,290Z"/><polygon class="cls-3" points="745.85 326.75 753.29 328.52 761.26 331.02 760.58 334.61 757.01 336.19 749.44 332.75 745.07 328.52 745.85 326.75"/><polygon class="cls-3" points="742.91 326.13 740.99 329.08 753.28 340.89 757.01 336.19 742.91 326.13"/><polygon class="cls-3" points="757.01 336.19 761.46 340.13 763.55 326.75 757.01 336.19"/><path class="cls-3" d="M748.89,309.68s-1.47,12,2.32,14.89a16.18,16.18,0,0,0,13.55.7s3.14,3.65.5,6-13.73,1.85-16.31-.91-3.2-14.89-1.83-20l1.15-1.21Z"/><path class="cls-3" d="M751.67,308.3c10,1.48,14.69-.23,16.39-1.49a1.06,1.06,0,0,1,1.34.15l6.56,3.67L756.2,322.12l-6.39-3.92a1.17,1.17,0,0,1-.23-1.14l1-8.21A.94.94,0,0,1,751.67,308.3Z"/><path class="cls-3" d="M758.06,312.14l17.25-1.77a.64.64,0,0,1,.76.72L775,319.32a1.4,1.4,0,0,1-1.13,1l-17.11,2a.61.61,0,0,1-.74-.7l.82-8.48A1.48,1.48,0,0,1,758.06,312.14Z"/><path class="cls-3" d="M750.48,309.87s-7.51-3.48-11.22-10a3.22,3.22,0,0,0-1.07,3.34,28.82,28.82,0,0,0,11.86,10Z"/><path class="cls-3" d="M727.08,333.51s-22.9,5.29-45.69-23.15c0,0-4.72.34-7.47,8.79,0,0,16,34,54.62,33.3C728.54,352.44,734.67,337.92,727.08,333.51Z"/><path class="cls-3" d="M475.24,377.39l-12.62,8.06L457,390.65l-129.68-3-3.59-3.3L307.82,381v22.6h0a2,2,0,0,0,1,1.84l2.55,1.48,77.84,45h0a3.76,3.76,0,0,0,3.77,0l75.36-43.51,9.79-5.65a3.64,3.64,0,0,0,1.83-3.3h0v-22.6Z"/><path class="cls-3" d="M478.16,373.86l-.14-.08-77.84-45h0a3.76,3.76,0,0,0-3.77,0l-71.55,41.31-16,9.23a2.06,2.06,0,0,0,0,3.58l2.55,1.48,77.84,45h0a3.77,3.77,0,0,0,3.77,0l75.36-43.51,9.79-5.64A3.67,3.67,0,0,0,478.16,373.86Z"/><polygon class="cls-3" points="264.29 194.54 264.29 293.71 417.6 205.01 417.6 105.84 264.29 194.54"/><polygon class="cls-3" points="378.37 141.64 378.37 138.02 410.85 119.23 410.85 122.85 378.37 141.64"/><polygon class="cls-3" points="378.37 148.59 378.37 144.97 410.85 126.18 410.85 129.79 378.37 148.59"/><polygon class="cls-3" points="378.37 155.53 378.37 151.91 410.85 133.12 410.85 136.74 378.37 155.53"/><polygon class="cls-3" points="360.15 148.73 360.15 152.35 327.67 171.14 327.67 167.52 360.15 148.73"/><polygon class="cls-3" points="360.15 159.3 327.67 178.09 327.67 174.47 360.15 155.68 360.15 159.3"/><polygon class="cls-3" points="360.15 166.24 327.67 185.03 327.67 181.41 360.15 162.63 360.15 166.24"/><polygon class="cls-3" points="360.15 183.65 327.67 202.44 327.67 198.83 360.15 180.03 360.15 183.65"/><polygon class="cls-3" points="360.15 190.6 327.67 209.39 327.67 205.77 360.15 186.98 360.15 190.6"/><polygon class="cls-3" points="360.15 197.55 327.67 216.34 327.67 212.72 360.15 193.93 360.15 197.55"/><polygon class="cls-3" points="360.15 214.96 327.67 233.75 327.67 230.13 360.15 211.34 360.15 214.96"/><polygon class="cls-3" points="360.15 221.9 327.67 240.69 327.67 237.07 360.15 218.28 360.15 221.9"/><polygon class="cls-3" points="360.15 228.85 327.67 247.64 327.67 244.02 360.15 225.23 360.15 228.85"/><polygon class="cls-3" points="378.37 162.48 378.37 158.86 410.85 140.07 410.85 143.69 378.37 162.48"/><polygon class="cls-3" points="303.47 223.6 314.96 216.96 314.96 254.56 303.47 261.2 303.47 223.6"/><polygon class="cls-3" points="288.29 212.03 299.77 205.38 299.77 263.36 288.29 270 288.29 212.03"/><polygon class="cls-3" points="273.11 200.51 284.59 193.87 284.59 272.16 273.11 278.8 273.11 200.51"/><path class="cls-3" d="M391.66,187.9v-21c.36-.23.71-.47,1.08-.68,10-5.76,18.08-1.14,18.11,10.32s-8,25.4-18,31.16-18.07,1.13-18.11-10.32c0-.17,0-.34,0-.51Z"/><path class="cls-3" d="M263.67,193.48l-.62.35v102l155.16-89.77.61-.36v-102ZM416.37,204.3,265.52,291.58V195.25L416.37,108Z"/><polygon class="cls-3" points="374.14 160.25 383.7 157.13 384.44 162.75 380.91 168.17 374.14 160.25"/><polygon class="cls-3" points="375.31 160.6 382.5 158.33 382.5 157.53 374.14 160.25 375.31 160.6"/><path class="cls-3" d="M418.7,186s15,6.49,0,26.28Z"/><path class="cls-3" d="M410.79,365.51s-2.07,2-5.37,0a18,18,0,0,0-6.8-2.53,10.68,10.68,0,0,0-4.08.12c-1,.23-3,.86-3.37,1.88-1.11,2.74.27,5.16,2.31,6.93,5.56,4.79,12.27,8.38,19.66,9,3.17.28,7.08.34,10-1.05,0,0,.5-12.12-.87-13.7Z"/><path class="cls-3" d="M417.36,252.28s4.08,15.4,3.63,27.41L424.5,365s-6.84,6.08-20,3.81L400.2,253.16Z"/><path class="cls-3" d="M383.71,372.9s-2.06,2-5.36,0a18.14,18.14,0,0,0-6.81-2.53,10.71,10.71,0,0,0-4.08.12c-1,.24-3,.86-3.37,1.88-1.12,2.75.27,5.16,2.31,6.93,5.56,4.79,12.27,8.38,19.66,9,3.17.28,7.08.34,10-1,0,0,.5-12.12-.87-13.71Z"/><path class="cls-3" d="M403.52,251s2.29,10-1,24.23l-5.3,99.48a29.23,29.23,0,0,1-20.16,0L379.94,257Z"/><path class="cls-3" d="M378.75,253.62c-.08-3,2.08-18,2.08-18h0c-.54-20.31.16-40.66.16-40.66l11.5-7.51,17.08-4,6.28,1.58a5.93,5.93,0,0,1,5.45,4.84c.89,4.81,1.88,12.55.59,18.88-.86,4.18-1.79,11.87-2.59,19.38-.08.78-1.19,15.61-.61,21.66a3,3,0,0,1-1.34,2.46c-11.32,10.42-35.45,7-35.45,7C379.19,259,378.81,256,378.75,253.62Z"/><path class="cls-3" d="M338.26,217.74c1.62-.54,3.31-.5,6.45,0a10.39,10.39,0,0,0-2.39-1.55c-1.36-.62-.45-1.31-.45-1.31a16.32,16.32,0,0,1,6,2.07,32.62,32.62,0,0,0,3.4,2l-.08.56.91.23s-2.6,6.17-4.19,6.4-4.55-2.33-6.23-2.55c-2.34-.3-4.12.9-5.78.75s-2.23-2.19-2.38-3.17S336.22,218.42,338.26,217.74Z"/><path class="cls-3" d="M351.52,218.37l18.58,5.81s3.17-18.35,3.93-22.13,7-7.1,7-7.1c9.55,4.83,6.68,12.39,6.68,12.39l-7.77,26.3a6.36,6.36,0,0,1-8.57,4.06l-24.65-10.42C346.53,219.58,351.52,218.37,351.52,218.37Z"/><path class="cls-3" d="M407.17,146.87c-4.08-.67-9.65-.8-13.6.37-6.64,2-10.26,6.2-11.86,12.5s-2.09,16.92,1.54,22.82c2.27,3.69,7.33,3,10.94,2,4.37-1.16,10.08-3,13.66-5.75,5-3.77,7.63-12,7.93-18C416.06,155.71,413.4,147.89,407.17,146.87Z"/><path class="cls-3" d="M409.56,177.28a13.34,13.34,0,0,1-1.7,1.55c-3.58,2.71-9.29,4.59-13.66,5.75-.69.18-1.45.35-2.22.48l.52,2.38a23.11,23.11,0,0,0,12.19,0c2.39-.66,4.89-1.67,4.89-4.18v-6Z"/><path class="cls-3" d="M378.61,146.8s5.25,2.39,13.21-.92c4-1.68,15.32-1.23,18.5,2.24h0c4,2.64,5.68,8.57,5.47,12.74-.3,6-2.94,14.22-7.93,18-2.76,2.08-2.88,2.32-6.57,3.47-1-.49-6.44-4.7-6.44-4.7,2.09-1.21,3.71-8.16,1.48-9.37s-3.71,3.1-3.71,3.1c-1.28-.47-3.24-2-2.16-4.52a7.66,7.66,0,0,0,0-5.26c-3.94.08-7.2-2.14-8.44-2.85C382,158.72,376.77,155.08,378.61,146.8Z"/><path class="cls-3" d="M374.14,160.25l9.09,2.21A1.53,1.53,0,0,1,384.4,164l-.28,8.55a1.22,1.22,0,0,1-1.53,1.14l-8.18-2.13Z"/><polygon class="cls-3" points="374.14 160.25 375.42 160.56 375.49 171.84 374.42 171.56 374.14 160.25"/><path class="cls-3" d="M383.66,165.74s21.94,1.47,32.1-6.85a4.44,4.44,0,0,1-.35,5.47s-12.71,7.33-31.89,5.59Z"/><path class="cls-3" d="M30.53,373.83a21.87,21.87,0,0,0-5,3.78l-6.11,6.71v8.5h0a21.38,21.38,0,0,0,11.09,18.74l102.12,56.82a54.63,54.63,0,0,0,28.86,6.84V300.87Z"/><path class="cls-3" d="M383.38,329.79a21.59,21.59,0,0,0-6.41-5.48l-101.2-57.13a54.66,54.66,0,0,0-53.47-.15l-60.77,33.84V475.21a54.55,54.55,0,0,0,24.32-6.86L376.86,362a21.39,21.39,0,0,0,11.07-19.16v-7.73Z"/><path id="_Path_" data-name="&lt;Path&gt;" class="cls-3" d="M30.53,366.55,222.29,259.74a54.67,54.67,0,0,1,53.48.15L377,317a21.59,21.59,0,0,1-.11,37.66l-191,106.4a54.65,54.65,0,0,1-53.18,0L30.54,404.27A21.59,21.59,0,0,1,30.53,366.55Z"/><path class="cls-3" d="M242.3,452.22a5.71,5.71,0,0,0-1.28,1l-1.56,1.72v2.18h0a5.47,5.47,0,0,0,2.83,4.8l26.15,14.54a13.91,13.91,0,0,0,7.39,1.75V433.54Z"/><path class="cls-3" d="M332.64,441a5.51,5.51,0,0,0-1.64-1.41l-25.92-14.62a14,14,0,0,0-13.69,0l-15.56,8.66v44.64a13.86,13.86,0,0,0,6.23-1.75L331,449.19a5.49,5.49,0,0,0,2.84-4.92v-2Z"/><path id="_Path_2" data-name="&lt;Path&gt;" class="cls-3" d="M242.3,450.36,291.39,423a14,14,0,0,1,13.69,0L331,437.68a5.54,5.54,0,0,1,0,9.65l-48.9,27.23a14,14,0,0,1-13.62,0L242.3,460A5.53,5.53,0,0,1,242.3,450.36Z"/><path class="cls-3" d="M280.19,490.13a6,6,0,0,0-1.27,1l-1.57,1.72V495h0a5.5,5.5,0,0,0,2.85,4.8l26.14,14.54a14.14,14.14,0,0,0,7.39,1.75V471.44Z"/><path class="cls-3" d="M370.54,478.85a5.42,5.42,0,0,0-1.64-1.39L343,462.81a14,14,0,0,0-13.69,0l-15.56,8.67v44.64a14.25,14.25,0,0,0,6.23-1.75l48.91-27.26a5.45,5.45,0,0,0,2.84-4.9v-2Z"/><path id="_Path_3" data-name="&lt;Path&gt;" class="cls-3" d="M280.19,488.26l49.1-27.35a14,14,0,0,1,13.69,0l25.91,14.64a5.52,5.52,0,0,1,0,9.63L320,512.47a14,14,0,0,1-13.62,0L280.2,497.91A5.52,5.52,0,0,1,280.19,488.26Z"/><path class="cls-3" d="M318.09,528a5.7,5.7,0,0,0-1.27,1l-1.56,1.72v2.17h0a5.5,5.5,0,0,0,2.85,4.8l26.14,14.54a13.87,13.87,0,0,0,7.39,1.75V509.34Z"/><path class="cls-3" d="M408.44,516.75a5.33,5.33,0,0,0-1.64-1.41l-25.91-14.63a14,14,0,0,0-13.69,0l-15.56,8.67V554a13.8,13.8,0,0,0,6.23-1.75L406.77,525a5.49,5.49,0,0,0,2.84-4.91v-2Z"/><path id="_Path_4" data-name="&lt;Path&gt;" class="cls-3" d="M318.09,526.16l49.1-27.35a14,14,0,0,1,13.69,0l25.91,14.63a5.53,5.53,0,0,1,0,9.65l-48.91,27.24a14,14,0,0,1-13.62,0L318.1,535.82A5.53,5.53,0,0,1,318.09,526.16Z"/><polygon class="cls-3" points="0.61 318.54 110.17 257.49 110.17 42.6 0.61 103.57 0.61 318.54"/><polygon class="cls-3" points="32.2 337.5 141.77 276.45 141.77 61.56 32.2 122.53 32.2 337.5"/><polygon class="cls-3" points="44.81 315.78 129.17 268.77 129.17 256.83 44.81 303.77 44.81 315.78"/><path class="cls-3" d="M51.59,132.86,78.38,118a6.58,6.58,0,0,1,9.78,5.75v39.83L77.82,152.16,59,162.6a7.62,7.62,0,0,1-11.31-6.66V139.52A7.62,7.62,0,0,1,51.59,132.86Z"/><polygon class="cls-3" points="52.83 140.35 52.54 139.83 82.26 122.83 82.55 123.34 52.83 140.35"/><polygon class="cls-3" points="52.83 146.26 52.54 145.75 82.26 128.74 82.55 129.26 52.83 146.26"/><polygon class="cls-3" points="52.83 152.17 52.54 151.66 82.26 134.66 82.55 135.17 52.83 152.17"/><polygon class="cls-3" points="52.83 158.3 52.54 157.79 82.26 140.78 82.55 141.3 52.83 158.3"/><path class="cls-3" d="M51.59,240.7l26.79-14.91a6.58,6.58,0,0,1,9.78,5.75v39.83L77.82,260,59,270.43a7.62,7.62,0,0,1-11.31-6.66V247.35A7.61,7.61,0,0,1,51.59,240.7Z"/><polygon class="cls-3" points="52.83 248.18 52.54 247.67 82.26 230.66 82.55 231.18 52.83 248.18"/><polygon class="cls-3" points="52.83 254.1 52.54 253.58 82.26 236.58 82.55 237.09 52.83 254.1"/><polygon class="cls-3" points="52.83 260.01 52.54 259.5 82.26 242.49 82.55 243.01 52.83 260.01"/><polygon class="cls-3" points="52.83 266.14 52.54 265.62 82.26 248.62 82.55 249.13 52.83 266.14"/><path class="cls-3" d="M120.25,158.77,93.46,173.68a7.62,7.62,0,0,0-3.91,6.66v37.13l9.54-12.9L119.69,193l2.27-1.29A15.89,15.89,0,0,0,130,177.86V164.53A6.58,6.58,0,0,0,120.25,158.77Z"/><polygon class="cls-3" points="94.7 181.16 94.41 180.65 124.13 163.65 124.42 164.16 94.7 181.16"/><rect class="cls-3" x="92.3" y="178.02" width="34.24" height="0.59" transform="translate(-74 77.68) rotate(-29.71)"/><polygon class="cls-3" points="94.7 192.99 94.41 192.48 124.13 175.47 124.42 175.99 94.7 192.99"/><rect class="cls-3" x="92.3" y="190.07" width="34.24" height="0.59" transform="translate(-80.33 79.89) rotate(-29.9)"/><path class="cls-3" d="M217.27,348.7S217,356,213.2,358s-13.52,8.9-11.4,12,9.38,6,17.06,1.71,12.1-8,14.38-9.5,0-11.88-.47-16.44S217.27,348.7,217.27,348.7Z"/><path class="cls-3" d="M193.85,234s-11.36,59-11.36,62.31,30.1,35.78,30.1,35.78L216.45,304,204.37,289.6l9.43-32.06,3.59-29-8.29-11.44-15.25,4.25Z"/><path class="cls-3" d="M233.72,228.5s-.62,58.49-.62,66.33,2.61,53.55,2.61,53.55-2.94,6.53-21.55,2.94l-4.6-56.16-.47-45.77V236.32Z"/><path class="cls-3" d="M213.82,232.12S204,233.92,195,229.67l1.27-4.9,17.52,2.34Z"/><path class="cls-3" d="M253.49,241.59s-.22,6.24,0,8.75c.43,4.89-1.58,9.59-3.32,10.89s-5.46,2.29-6.91,1.47,1.36-5.35,1.91-7.56c1.2-4.8,0-6.36,0-6.37a14.54,14.54,0,0,1-.94,1.83c-.61,1.27-1.14,2.58-1.69,3.88a.53.53,0,0,1-.19.27.36.36,0,0,1-.39-.07c-1.38-1.18-1.09-4.21-.32-5.59s2.89-11.42,2.89-11.42Z"/><path class="cls-3" d="M136.62,227.18a4.88,4.88,0,0,0,1.51-.91c.45-.49-.21-.54-.72-.52-1.41.08-2.77.49-4.2.52-.42,0-1.22-.22-.75-.75,1.37-1.53,3.86-2.06,5.76-2.57a30.51,30.51,0,0,1,4.08-.81c.73-.1,1.47-.16,2.2-.2.42,0,1.34.14,1.71-.12a4.49,4.49,0,0,0,.46-.36l5.17,7a18.61,18.61,0,0,1-2.45,2.76,12.57,12.57,0,0,1-6.17,3.53c-1.65.51-2.64,1.6-3.92,2.77s-1.32,2.77-3,3.37S131,238.32,131,234.5c0-2,1.28-3.75,2.62-5.08a15,15,0,0,1,2.34-1.88A5.69,5.69,0,0,1,136.62,227.18Z"/><path class="cls-3" d="M255.09,238.69V244s-7.75.33-13.14-2.66v-5.51Z"/><path class="cls-3" d="M154.92,228.88l-4,3.49s-5.34-5.63-6.64-11.65l4.15-3.62Z"/><path class="cls-3" d="M219.4,144.36l-1,1.4L202,153.59,200.69,148A25.16,25.16,0,0,1,219.4,144.36Z"/><path class="cls-3" d="M217.87,139.55A41.38,41.38,0,0,0,219,146.9l-7,7.84-6,5.39H202.2l-1.06-4.49s1.47-9.31.57-12.65Z"/><path class="cls-3" d="M190.13,152.84s-10.61,33-14.53,41.43L146.21,218A16.39,16.39,0,0,0,154,230.44l30.69-21.87,5-8.29,4.14-33.93Z"/><path class="cls-3" d="M214.13,228.16s-7.62,1.74-17.42-2.61l-2.86-72.7,8.6,1.76,8.27-1.44L221,147.55l3.38,5.29-4.84,55.73Z"/><path class="cls-3" d="M199.4,164.21s-2.25,34.78-1.16,74.62a22.68,22.68,0,0,1-7.18-3.48s-2.85-49.49-.92-82.5l10.46-3.63-.25,3Z"/><polygon class="cls-3" points="219.4 144.36 221.54 148.05 210.39 160.13 205.55 154.04 219.4 144.36"/><path class="cls-3" d="M242.53,159.29s-5.2-5.51-21-11.24c0,0-12,19.85-9.07,93,0,0,20.6-2.85,23.64-5.24C236.11,235.78,234.91,177.68,242.53,159.29Z"/><path class="cls-3" d="M221.57,133.52s-1.82,13.12-13.77,13.91c-13.78.92-15.83-17-14.64-25.58,1.11-8,9.94-18,19.88-12.68C220.51,113.18,223.51,121.47,221.57,133.52Z"/><path class="cls-3" d="M208.52,105.6s12.11-.3,15.82,14.48c0,0,2.85,12.29-5.84,21.16,0,0-.1-5.18-.87-6.13s1.72-4.08,1.3-6-1-5.52-3.07-3.6l-.75.88a1.09,1.09,0,0,1-1.92-.74,6.91,6.91,0,0,0-.93-4.17c-1.72-2.21-9.94,5.63-19.36,4.56,0,0-2.47,0-2.45-3.63C190.44,122.39,192.41,103.46,208.52,105.6Z"/><polygon class="cls-3" points="205.55 154.04 199.78 159.15 200.69 148.05 205.55 154.04"/><polygon class="cls-3" points="205.55 154.04 201.31 157.79 203.04 160.87 206.82 161.28 209.22 158.66 205.55 154.04"/><polygon class="cls-3" points="203.04 160.87 199.78 209.26 203.34 216.61 207.61 210.08 206.82 161.28 203.04 160.87"/><polygon class="cls-3" points="229.36 177.22 236.54 202.47 237.15 191.64 229.36 177.22"/><path class="cls-3" d="M243.67,160.53s10.07,27.35,12,43.9V241s-8.05.43-14.15-2.83c0,0,1.74-38.09-12.19-60.95C229.36,177.22,233.22,147.77,243.67,160.53Z"/><path class="cls-3" d="M209.79,128.52c-10,1.48-14.69-.23-16.39-1.5a1.06,1.06,0,0,0-1.34.15l-6.57,3.67,19.77,11.49,6.39-3.92a1.16,1.16,0,0,0,.23-1.14l-1-8.21A.94.94,0,0,0,209.79,128.52Z"/><path class="cls-3" d="M203.4,132.35l-17.25-1.77a.64.64,0,0,0-.76.72l1.06,8.23a1.4,1.4,0,0,0,1.13,1l17.11,2a.61.61,0,0,0,.73-.71l-.82-8.47A1.48,1.48,0,0,0,203.4,132.35Z"/><path class="cls-3" d="M211,130.09s9-5.5,12.67-12a3.23,3.23,0,0,1,1.06,3.34s-5.33,8.37-13.32,12Z"/></g></g></g></svg>
