<svg id="logo_copy_3" data-name="logo copy 3" xmlns="http://www.w3.org/2000/svg" width="103.531" height="32.406" viewBox="0 0 103.531 32.406">
  <metadata><?xpacket begin="﻿" id="W5M0MpCehiHzreSzNTczkc9d"?>
<x:xmpmeta xmlns:x="adobe:ns:meta/" x:xmptk="Adobe XMP Core 5.6-c138 79.159824, 2016/09/14-01:09:01        ">
   <rdf:RDF xmlns:rdf="http://www.w3.org/1999/02/22-rdf-syntax-ns#">
      <rdf:Description rdf:about=""/>
   </rdf:RDF>
</x:xmpmeta>
                                                                                                    
                                                                                                    
                                                                                                    
                                                                                                    
                                                                                                    
                                                                                                    
                                                                                                    
                                                                                                    
                                                                                                    
                                                                                                    
                                                                                                    
                                                                                                    
                                                                                                    
                                                                                                    
                                                                                                    
                                                                                                    
                                                                                                    
                                                                                                    
                                                                                                    
                                                                                                    
                           
<?xpacket end="w"?></metadata>
<defs>
    <style>
      .cls-1 {
        fill: #f71e37;
        fill-rule: evenodd;
      }

      .cls-2 {
        fill: #3b28ea;
      }
    </style>
  </defs>
  <path id="Alpha" class="cls-1" d="M92.994,59.46a2.859,2.859,0,0,0-1.534.452,2.824,2.824,0,0,0-1.082,1.2L81.656,79.163a4.21,4.21,0,0,0-.549,1.647q0,1.163,1.873,2.067a4.238,4.238,0,0,0,1.728.549,1.662,1.662,0,0,0,1.034-.307,2.3,2.3,0,0,0,.581-0.6q0.177-.291.5-0.937L88.5,78.1h8.947l1.68,3.488q0.323,0.647.5,0.969a1.918,1.918,0,0,0,.582.614,1.724,1.724,0,0,0,1.033.291,4.238,4.238,0,0,0,1.728-.549q1.873-.936,1.874-2.1a4.234,4.234,0,0,0-.549-1.647L95.578,61.139a2.735,2.735,0,0,0-2.584-1.68h0Zm2.132,13.857h-4.3l2.132-4.425Zm10.854,3a10.6,10.6,0,0,0,.9,5.039q0.743,1.325,3.23,1.647,3.165,0.388,4-.194,0.647-.452.646-2.487,0-1.873-.646-2.293a1.627,1.627,0,0,0-.549-0.275,5.172,5.172,0,0,0-.888-0.049,0.951,0.951,0,0,1-.856-0.307,3.381,3.381,0,0,1-.194-1.47V60.978a9.92,9.92,0,0,0-.048-1.131,2.6,2.6,0,0,0-.307-0.872q-0.484-.872-2.455-0.872-2.067,0-2.519.872a2.982,2.982,0,0,0-.275.856,9.474,9.474,0,0,0-.048,1.114V76.32Zm10.61,12.532a2.449,2.449,0,0,0,.291.808,1.379,1.379,0,0,0,.839.646,5.345,5.345,0,0,0,1.6.194,5.181,5.181,0,0,0,1.583-.194,1.362,1.362,0,0,0,.824-0.662,2.626,2.626,0,0,0,.29-0.824,8.792,8.792,0,0,0,.049-1.1V81.2a4.643,4.643,0,0,0,3.843,1.486A6.841,6.841,0,0,0,130.9,80.2a8.287,8.287,0,0,0-.016-11.563,6.878,6.878,0,0,0-4.991-2.487,4.462,4.462,0,0,0-3.86,1.68,1.743,1.743,0,0,0-.694-1.276,4.233,4.233,0,0,0-2.309-.436q-1.713,0-2.165.872a2.666,2.666,0,0,0-.274.807,8.994,8.994,0,0,0-.049,1.1V87.755A8.993,8.993,0,0,0,116.589,88.853Zm8.333-17.184a2.6,2.6,0,0,1,2.019.856,2.79,2.79,0,0,1,.775,1.922,2.651,2.651,0,0,1-.823,1.906,2.7,2.7,0,0,1-2,.84,2.474,2.474,0,0,1-1.938-.856,2.784,2.784,0,0,1-.759-1.89,2.874,2.874,0,0,1,.743-1.906A2.476,2.476,0,0,1,124.922,71.669Zm16.069-3.521V61.01a9.474,9.474,0,0,0-.048-1.114,2.614,2.614,0,0,0-.307-0.856q-0.42-.872-2.455-0.872-2.067,0-2.519.872a2.632,2.632,0,0,0-.275.824,9.474,9.474,0,0,0-.048,1.114V80.293a9.409,9.409,0,0,0,.048,1.13,3,3,0,0,0,.275.84q0.451,0.872,2.487.872,2.067,0,2.487-.84a2.609,2.609,0,0,0,.307-0.856,9.463,9.463,0,0,0,.048-1.114V74.059a2.476,2.476,0,0,1,1-1.566,3.151,3.151,0,0,1,2.019-.695,2.563,2.563,0,0,1,1.89.743,2.8,2.8,0,0,1,.743,2.067v5.653a10.309,10.309,0,0,0,.048,1.163A2.556,2.556,0,0,0,147,82.3q0.484,0.84,2.455.84,2.067,0,2.487-.84a2.609,2.609,0,0,0,.307-0.856,9.463,9.463,0,0,0,.048-1.114V74.641a8.8,8.8,0,0,0-2.148-6.008,6.851,6.851,0,0,0-5.378-2.455,4.78,4.78,0,0,0-3.779,1.97h0Zm24.354-.888a4.45,4.45,0,0,0-1.26-.727,5.03,5.03,0,0,0-2-.388,7.185,7.185,0,0,0-5.281,2.536,8.317,8.317,0,0,0-2.407,5.911,8.4,8.4,0,0,0,2.391,5.927,7.044,7.044,0,0,0,5.184,2.552,4.519,4.519,0,0,0,3.989-1.712,1.742,1.742,0,0,0,.694,1.276,4.358,4.358,0,0,0,2.358.436q1.761,0,2.213-.84a3,3,0,0,0,.274-0.856,9.2,9.2,0,0,0,.049-1.114V68.956a9.211,9.211,0,0,0-.049-1.114,2.776,2.776,0,0,0-.29-0.856,1.359,1.359,0,0,0-.856-0.678,6.7,6.7,0,0,0-1.874-.194q-2.358,0-2.551,1.809A4.526,4.526,0,0,0,165.345,67.26Zm-4.506,5.41a2.619,2.619,0,0,1,2.068-.9,2.521,2.521,0,0,1,2.034.9,2.984,2.984,0,0,1,.759,1.954,2.8,2.8,0,0,1-.791,1.922,2.57,2.57,0,0,1-1.986.872,2.743,2.743,0,0,1-2.035-.856,2.68,2.68,0,0,1-.84-1.922A2.931,2.931,0,0,1,160.839,72.67Z" transform="translate(-68 -58.094)"/>
  <circle class="cls-2" cx="3.5" cy="21.406" r="3.5"/>
</svg>
